HIERARCHY
ROOT root
{
	OFFSET	0	13.1	24.9
	CHANNELS 6  Xposition Yposition Zposition Xrotation Yrotation Zrotation
	JOINT spine_1
	{
		OFFSET	0	9.99999	0
		CHANNELS 3  Xrotation Yrotation Zrotation
		JOINT spine_2
		{
			OFFSET	0	112	-10
			CHANNELS 3  Xrotation Yrotation Zrotation
			JOINT spine_3
			{
				OFFSET	0	206.5	19.3
				CHANNELS 3  Xrotation Yrotation Zrotation
				JOINT spine_4
				{
					OFFSET	0	110.4	14.6
					CHANNELS 3  Xrotation Yrotation Zrotation
					JOINT neck_1
					{
						OFFSET	0	71.8	-50.3
						CHANNELS 3  Xrotation Yrotation Zrotation
						JOINT neck_2
						{
							OFFSET	0	86.2	-25.8
							CHANNELS 3  Xrotation Yrotation Zrotation
							JOINT head_ee
							{
								OFFSET	0	179.8	-8.7
								CHANNELS 3  Xrotation Yrotation Zrotation
								End Site
								{
									OFFSET	1	0	0
								}
							}
						}
					}
					JOINT left_clavicle
					{
						OFFSET	-43.2	22.4	-70.8
						CHANNELS 3  Xrotation Yrotation Zrotation
						JOINT left_shoulder
						{
							OFFSET	-93.9	-5.79999	48.7
							CHANNELS 3  Xrotation Yrotation Zrotation
							JOINT left_elbow
							{
								OFFSET	-291.4	-30.8	15.2
								CHANNELS 3  Xrotation Yrotation Zrotation
								JOINT left_lowarm_twist
								{
									OFFSET	-110.7	-3.89999	13.6
									CHANNELS 3  Xrotation Yrotation Zrotation
									JOINT left_hand
									{
										OFFSET	-110.7	-3.89999	13.6
										CHANNELS 3  Xrotation Yrotation Zrotation
										JOINT left_ee
										{
											OFFSET	-80.8	-5.10001	12.1
											CHANNELS 3  Xrotation Yrotation Zrotation
											End Site
											{
												OFFSET	1	0	0
											}
										}
									}
								}
							}
						}
					}
					JOINT right_clavicle
					{
						OFFSET	43.2	22.4	-70.8
						CHANNELS 3  Xrotation Yrotation Zrotation
						JOINT right_shoulder
						{
							OFFSET	93.9	-5.79999	48.7
							CHANNELS 3  Xrotation Yrotation Zrotation
							JOINT right_elbow
							{
								OFFSET	291.4	-30.8	15.2
								CHANNELS 3  Xrotation Yrotation Zrotation
								JOINT right_lowarm_twist
								{
									OFFSET	110.7	-3.89999	13.6
									CHANNELS 3  Xrotation Yrotation Zrotation
									JOINT right_hand
									{
										OFFSET	110.7	-3.89999	13.6
										CHANNELS 3  Xrotation Yrotation Zrotation
										JOINT right_ee
										{
											OFFSET	80.8	-5.10001	12.1
											CHANNELS 3  Xrotation Yrotation Zrotation
											End Site
											{
												OFFSET	1	0	0
											}
										}
									}
								}
							}
						}
					}
				}
			}
		}
	}
	JOINT left_hip
	{
		OFFSET	-82.8	-127.5	0.300001
		CHANNELS 3  Xrotation Yrotation Zrotation
		JOINT left_knee
		{
			OFFSET	-28.2	-396.7	2.2
			CHANNELS 3  Xrotation Yrotation Zrotation
			JOINT left_ankle
			{
				OFFSET	-11.7	-411.3	35.4
				CHANNELS 3  Xrotation Yrotation Zrotation
				JOINT left_toes
				{
					OFFSET	0	-60	-88.6
					CHANNELS 3  Xrotation Yrotation Zrotation
					JOINT left_foot_ee
					{
						OFFSET	-22.5	-16.5	-42.2
						CHANNELS 3  Xrotation Yrotation Zrotation
						End Site
						{
							OFFSET	1	0	0
						}
					}
				}
			}
		}
	}
	JOINT right_hip
	{
		OFFSET	82.8	-127.5	0.300001
		CHANNELS 3  Xrotation Yrotation Zrotation
		JOINT right_knee
		{
			OFFSET	28.2	-396.7	2.2
			CHANNELS 3  Xrotation Yrotation Zrotation
			JOINT right_ankle
			{
				OFFSET	11.7	-411.3	35.4
				CHANNELS 3  Xrotation Yrotation Zrotation
				JOINT right_toes
				{
					OFFSET	0	-60	-88.6
					CHANNELS 3  Xrotation Yrotation Zrotation
					JOINT right_foot_ee
					{
						OFFSET	22.5	-16.5	-42.2
						CHANNELS 3  Xrotation Yrotation Zrotation
						End Site
						{
							OFFSET	1	0	0
						}
					}
				}
			}
		}
	}
}
MOTION
Frames: 16
Frame Time: 0.02
1856.34 694.394 -1324.79 -21.6266 49.7316 15.8435 5.01173 -0.380283 -0.388731 5.01174 -0.354776 -0.412141 5.01427 -0.300979 -0.452922 5.01418 -0.368732 -0.399704 -12.3218 6.31773 -1.28919 -12.4102 12.8138 0.587148 -0.0 0.0 -0.0 3.6113 17.2836 7.61138 -6.38693 -25.7748 48.8286 2.2371 -47.9314 0.994517 31.6874 0.0111271 -3.99668 0.503329 -6.62696 0.585691 -0.0 0.0 -0.0 4.71853 -2.66278 -9.20275 -30.0362 14.7372 -62.21 0.316851 8.92047 -0.0247155 25.0725 -0.192192 3.17157 0.881334 -7.75618 -8.98026 0.0 0.0 0.0 -7.54795 7.96136 10.002 -0.34481 0.0140445 0.0510508 40.2819 8.83301 -4.89338 -8.811 0.0 0.0 -0.0 0.0 -0.0 45.2665 25.1709 -4.74144 -1.1856 -0.0469986 -0.175872 -15.6653 -17.1964 -2.37533 -19.8255 0.0 0.0 0.0 0.0 0.0 
1826.76 689.067 -1354.37 -19.6041 49.7222 14.5564 5.13202 -0.233121 -0.236985 5.13202 -0.217569 -0.251339 5.13297 -0.18532 -0.275978 5.13293 -0.22658 -0.243247 -10.2078 6.38797 -1.0854 -10.258 12.7639 0.563928 -0.0 0.0 -0.0 3.21523 18.4613 7.02697 -8.56824 -25.1807 47.9405 2.23349 -47.8854 0.991841 30.4681 0.0516488 -3.84624 0.511116 -6.41646 0.727464 -0.0 0.0 -0.0 4.63841 -3.08512 -9.06375 -29.6257 14.0084 -64.0359 0.288356 8.12949 -0.0204914 25.1576 -0.190468 3.18231 0.82119 -9.32016 -9.18656 0.0 0.0 0.0 -9.1704 6.31822 8.89105 -4.97422 0.172606 0.743642 41.4783 12.5951 -5.02968 -6.87973 0.0 0.0 -0.0 0.0 -0.0 43.8143 25.0037 -7.17729 -4.34867 -0.154461 -0.649356 -12.1211 -14.8143 -1.8221 -19.6762 0.0 0.0 0.0 0.0 0.0 
1800.07 691.741 -1379.19 -17.935 49.7873 14.1047 5.0272 0.0280452 -0.287121 5.02725 0.0462586 -0.284755 5.02698 0.0811284 -0.276845 5.02688 0.0363878 -0.286184 -8.07128 6.26819 -1.14326 -8.08138 12.5094 0.243282 -0.0 0.0 -0.0 3.04199 19.2755 6.78744 -10.7576 -24.5945 47.9756 2.21076 -47.5938 0.975014 27.8323 0.128249 -3.51829 0.559567 -4.54277 1.84551 -0.0 0.0 -0.0 4.73124 -3.08836 -9.23944 -28.7934 13.6942 -65.1364 0.310086 8.73301 -0.0236776 25.5555 -0.182209 3.23246 0.740751 -10.2382 -9.01353 0.0 0.0 0.0 -10.1106 5.18666 7.73305 -9.11295 0.266588 1.37168 41.4181 16.5261 -5.08376 -5.64936 0.0 0.0 -0.0 0.0 -0.0 42.5058 24.9864 -8.76362 -7.98073 -0.245392 -1.19923 -9.58199 -10.5874 -1.42849 -19.5749 0.0 0.0 0.0 0.0 0.0 
1767.45 696.598 -1400.84 -17.1877 49.8119 14.0516 5.02127 0.135638 -0.192485 5.02128 0.147611 -0.183464 5.0208 0.16919 -0.163776 5.02079 0.141201 -0.188441 -5.89403 6.44821 -1.40202 -5.86204 12.9465 -0.216759 -0.0 0.0 -0.0 2.70571 20.8363 6.34068 -13.3969 -23.8689 48.4365 2.19611 -47.4042 0.964215 25.6816 0.179516 -3.24835 0.784925 -3.42325 3.83356 -0.0 0.0 -0.0 4.85191 -3.3215 -9.47397 -28.5076 13.3704 -65.9107 0.323024 9.09139 -0.0256818 25.8188 -0.17655 3.26562 0.653644 -10.83 -8.67563 0.0 0.0 0.0 -10.389 3.91191 6.48716 -11.9604 0.3048 1.80688 40.5641 20.4503 -5.09121 -5.19923 0.0 0.0 -0.0 0.0 -0.0 40.9762 25.1234 -9.56009 -10.1198 -0.282571 -1.52535 -8.08778 -7.34785 -1.20276 -19.7051 0.0 0.0 0.0 0.0 0.0 
1743.69 699.585 -1419.83 -16.5119 49.4674 13.5305 4.81314 0.306296 -0.172118 4.8131 0.316627 -0.152278 4.8123 0.33345 -0.110691 4.81242 0.311784 -0.161964 -5.97628 7.03248 -1.23861 -5.9443 13.9101 0.0674231 -0.0 0.0 -0.0 2.13336 21.8366 5.55999 -15.9321 -23.1725 49.0117 2.22567 -47.7854 0.98604 23.7161 0.217476 -3.00016 0.948142 -2.73921 5.21882 -0.0 0.0 -0.0 5.21656 -3.07013 -10.1589 -27.1068 13.4778 -66.2071 0.376037 10.5522 -0.0347258 26.3554 -0.164546 3.33312 0.495887 -9.15283 -7.00565 0.0 0.0 0.0 -8.9594 3.74043 5.28737 -13.9324 0.318566 2.10912 40.1289 24.6509 -5.16899 -3.95582 0.0 0.0 -0.0 0.0 -0.0 38.8674 25.2688 -10.0107 -11.8008 -0.30323 -1.78244 -1.743 -6.13801 -0.256306 -18.5026 0.0 0.0 0.0 0.0 0.0 
1720.95 702.86 -1434.78 -14.754 49.3915 12.4886 4.48325 0.190597 -0.344667 4.48329 0.212143 -0.331841 4.48203 0.254437 -0.300641 4.48196 0.203763 -0.337051 -8.82077 7.89329 -4.55842 -8.80829 17.9406 -2.6634 -0.0 0.0 -0.0 2.17409 23.7213 5.70585 -17.5883 -21.0106 50.1057 2.14968 -46.794 0.930205 22.8281 0.231828 -2.88764 0.881858 -2.30676 4.95108 -0.0 0.0 -0.0 5.24324 -3.39472 -10.2157 -26.2862 14.7198 -65.7998 0.452928 12.6461 -0.0501884 25.6861 -0.179421 3.24891 0.195239 -10.5157 -5.60304 0.0 0.0 0.0 -7.55025 2.9241 3.85692 -21.7456 0.270813 3.30606 40.8984 24.8097 -5.24707 -3.47693 0.0 0.0 -0.0 0.0 -0.0 35.0713 25.5286 -10.108 -14.3728 -0.320219 -2.17667 8.89877 -4.70517 1.27166 -14.3654 0.0 0.0 0.0 0.0 0.0 
1702.97 710.544 -1441.72 -13.0712 48.8351 10.7446 4.29589 0.282865 -0.0675345 4.29585 0.286589 -0.0493981 4.29563 0.290648 -0.00985798 4.29574 0.285444 -0.0556371 -7.91579 8.00356 -6.73527 -7.79044 19.6834 -4.96998 -0.0 0.0 -0.0 2.0301 24.2297 5.53382 -20.0618 -21.2502 50.0597 1.93857 -43.8355 0.78006 21.5058 0.249964 -2.71971 0.987084 -2.38331 5.62894 -0.0 0.0 -0.0 5.57565 -1.2931 -10.813 -23.6886 14.658 -66.9257 0.61479 16.9382 -0.0915428 26.7989 -0.154149 3.38882 0.525517 -11.8311 -8.23417 0.0 0.0 0.0 -4.83978 3.45408 3.17866 -30.1229 0.0393393 4.56971 40.4755 25.656 -5.23543 -0.941576 0.0 0.0 -0.0 0.0 -0.0 32.2353 26.1262 -8.88856 -13.1312 -0.314227 -1.98627 8.0861 -1.30215 1.16472 -18.1529 0.0 0.0 0.0 0.0 0.0 
1678.22 712.84 -1453.93 -12.0448 49.3489 9.69116 4.0692 0.0613699 0.303172 4.06925 0.041954 0.306462 4.06945 -0.00144683 0.309317 4.06932 0.047422 0.305664 -7.98879 10.0804 -5.41824 -7.93004 22.6256 -3.17359 -0.0 0.0 -0.0 1.89222 23.7084 5.31991 -21.6407 -18.7516 52.1831 1.73925 -40.7438 0.645895 19.8155 0.267495 -2.50452 0.55342 -2.4072 2.69916 -0.0 0.0 -0.0 5.9182 0.790867 -11.4423 -21.882 15.1187 -66.7111 0.715461 19.5153 -0.123039 27.8315 -0.12827 3.51819 0.30707 -14.1627 -7.73924 0.0 0.0 0.0 -3.2986 3.5301 2.34499 -33.6162 -0.111345 5.0845 39.0044 25.831 -5.09831 0.68787 -0.0 -0.0 -0.0 0.0 -0.0 30.1506 26.3704 -8.64926 -16.3059 -0.321332 -2.47325 12.7781 0.154261 1.81513 -14.8415 0.0 0.0 0.0 0.0 0.0 
1656.81 714.913 -1459.89 -10.261 48.9284 7.45939 3.82033 0.0923866 0.413594 3.82042 0.0658816 0.418634 3.82086 0.00467227 0.423761 3.82061 0.0715382 0.417705 -8.7016 11.4586 -4.51611 -8.73587 24.5824 -1.79297 -0.0 0.0 -0.0 1.63731 23.3487 4.9498 -23.0984 -17.0069 54.8346 1.60353 -38.4587 0.55936 18.3061 0.277778 -2.31202 0.598042 -1.65417 3.31253 -0.0 0.0 -0.0 5.84806 1.6673 -11.2835 -20.9695 17.9458 -67.0117 0.854555 22.9438 -0.173428 28.8165 -0.101414 3.64114 0.209826 -17.9548 -8.57409 0.0 0.0 0.0 -3.39328 3.50659 3.15999 -37.165 -0.29633 5.5973 32.7225 24.9095 -4.4127 1.20623 -0.0 -0.0 -0.0 0.0 -0.0 28.3399 26.2286 -8.05494 -18.9785 -0.306395 -2.883 15.66 -6.27709 2.17935 -11.6004 0.0 0.0 0.0 0.0 0.0 
1641.18 717.19 -1466.55 -9.79347 48.3243 6.86557 3.81014 0.0633885 0.268427 3.81018 0.0461795 0.271916 3.81038 0.00633585 0.275737 3.81028 0.0498037 0.271276 -9.17425 12.1119 -6.28536 -9.20868 27.0214 -3.26877 -0.0 0.0 -0.0 1.27851 23.0409 4.43432 -25.7391 -15.9072 57.2755 1.47124 -36.0826 0.479232 17.7575 0.280258 -2.24199 0.720761 -1.50862 4.19732 -0.0 0.0 -0.0 6.39597 4.50387 -12.3154 -18.8818 17.8457 -66.7399 0.908679 24.2337 -0.195088 29.8224 -0.071811 3.76621 0.109973 -16.6906 -7.47993 0.0 0.0 0.0 0.782878 3.87307 1.78833 -38.3635 -0.365952 5.76782 30.1143 26.5999 -4.16159 1.21927 -0.0 -0.0 -0.0 0.0 -0.0 26.0934 26.3481 -7.3329 -19.677 -0.299342 -2.98994 19.7122 -5.2583 2.69642 -10.3038 0.0 0.0 0.0 0.0 0.0 
1621.23 716.394 -1474.72 -8.62746 48.1889 6.07275 3.83703 0.1633 0.299237 3.83707 0.143928 0.309021 3.83783 0.0978424 0.326552 3.83771 0.148187 0.307002 -9.35876 12.6747 -6.37897 -9.42343 28.1389 -3.16699 -0.0 0.0 -0.0 0.788773 22.8637 3.74205 -27.9308 -15.112 59.3632 1.38146 -34.3833 0.427432 17.2473 0.281963 -2.17684 0.789722 -0.903448 4.91056 -0.0 0.0 -0.0 6.75683 6.74757 -12.994 -17.4993 19.2805 -66.3413 0.96604 25.5729 -0.219243 30.9813 -0.034985 3.90966 0.0512268 -17.9277 -7.59351 0.0 0.0 0.0 2.16689 3.97316 0.922329 -40.6094 -0.505992 6.08337 25.9696 26.7817 -3.66721 0.823323 -0.0 -0.0 -0.0 0.0 -0.0 24.2696 26.2751 -7.2505 -20.921 -0.283553 -3.18017 21.8672 -6.71523 2.9595 -8.66364 0.0 0.0 0.0 0.0 0.0 
1601.68 719.973 -1488.81 -9.30692 48.2634 6.56455 3.97864 0.241111 0.341965 3.97867 0.218862 0.356615 3.98002 0.166083 0.384046 3.97988 0.224651 0.352997 -9.26807 13.2502 -5.69069 -9.36269 28.751 -2.36093 -0.0 0.0 -0.0 0.437077 22.3713 3.2067 -30.1341 -14.2297 61.279 1.29831 -32.7453 0.381454 16.708 0.283135 -2.10797 0.874161 0.106564 5.89188 -0.0 0.0 -0.0 7.26324 9.55526 -13.9618 -16.1795 20.2445 -66.2649 1.01675 26.7323 -0.241595 31.5861 -0.0146132 3.98422 -0.0146026 -18.373 -7.36313 0.0 0.0 0.0 3.94294 4.02414 0.549493 -41.7462 -0.581582 6.24098 22.2507 27.4676 -3.20914 0.279202 -0.0 -0.0 -0.0 0.0 -0.0 22.1591 25.9023 -7.13286 -20.8644 -0.284362 -3.17152 24.6085 -8.05524 3.28613 -7.24476 0.0 0.0 0.0 0.0 0.0 
1586.58 722.198 -1495.93 -9.64097 48.648 6.98063 4.10304 0.134866 0.410056 4.10312 0.1085 0.417806 4.10386 0.0490825 0.428865 4.10362 0.116197 0.415731 -9.56343 13.8148 -3.98091 -9.74686 28.6651 -0.443282 -0.0 0.0 -0.0 -0.0525682 22.2652 2.50945 -31.4604 -13.5833 62.4177 1.23331 -31.4213 0.346926 16.5678 0.283333 -2.09006 0.870365 1.55886 6.45676 -0.0 0.0 -0.0 7.56084 11.533 -14.5176 -15.3747 21.243 -65.657 1.06257 27.7602 -0.262576 32.0615 0.00194959 4.04267 -0.0155141 -18.2941 -7.3272 0.0 0.0 0.0 5.00458 4.13912 0.346872 -43.5675 -0.709189 6.49034 19.7604 27.5198 -2.88059 -0.0757015 0.0 0.0 -0.0 0.0 -0.0 20.7596 25.8628 -6.88722 -21.2227 -0.279103 -3.22623 26.5784 -9.21497 3.5154 -6.54765 0.0 0.0 0.0 0.0 0.0 
1570.59 723.1 -1512.43 -9.19975 47.4776 6.84272 4.15125 0.310593 0.334156 4.15126 0.288701 0.353243 4.15304 0.236874 0.389897 4.15295 0.295477 0.347594 -10.4527 14.2965 -3.81571 -10.754 29.4976 0.106404 -0.0 0.0 -0.0 -0.525538 22.455 1.86981 -33.5232 -13.0942 63.1598 1.20432 -30.8185 0.331946 16.1985 0.283646 -2.0429 0.914115 2.21143 7.01273 -0.0 0.0 -0.0 7.92411 13.1615 -15.2268 -13.65 22.0809 -66.0932 1.12669 29.1662 -0.293133 31.7853 -0.00773316 4.00873 0.0174809 -17.1979 -7.10602 0.0 0.0 0.0 10.8016 5.28016 -2.63585 -46.2499 -0.911473 6.85004 16.0461 27.8564 -2.37785 -1.39354 0.0 0.0 -0.0 0.0 -0.0 18.4543 25.7961 -7.07716 -20.5299 -0.288962 -3.1204 27.6039 -9.64423 3.63239 -5.80183 0.0 0.0 0.0 0.0 0.0 
1557.62 721.907 -1518.6 -10.5755 48.2447 8.3943 4.27536 0.155052 0.385984 4.27543 0.130177 0.395068 4.27628 0.0749553 0.409153 4.27607 0.138632 0.392181 -9.9081 15.1097 -3.89615 -10.1853 31.0596 0.0982054 -0.0 0.0 -0.0 -0.636349 22.4391 1.71295 -35.4707 -13.3886 63.9787 1.09329 -28.4385 0.277045 16.0193 0.283688 -2.02001 0.821382 4.42331 7.27882 -0.0 0.0 -0.0 8.29465 14.4591 -15.968 -11.4009 22.3023 -65.6698 1.15474 29.7697 -0.306936 31.2456 -0.0261802 3.94226 -0.0659192 -14.6558 -5.59327 0.0 0.0 0.0 12.0989 4.69109 -3.42179 -46.3504 -0.919377 6.86333 14.484 27.8162 -2.15779 -1.31646 0.0 0.0 -0.0 0.0 -0.0 17.7511 25.6595 -7.34395 -18.6899 -0.308928 -2.83879 29.4333 -9.36551 3.83299 -5.4429 0.0 0.0 0.0 0.0 0.0 
1526.42 729.205 -1525.84 -6.81475 47.4811 3.57403 4.01409 0.44337 0.864822 4.01442 0.387443 0.89128 4.02026 0.257832 0.937021 4.01926 0.402576 0.884548 -10.6831 15.4168 -2.73965 -11.0787 30.9184 1.54946 -0.0 0.0 -0.0 -0.758758 22.6324 1.56735 -37.1575 -12.8488 65.2716 0.958699 -25.4031 0.216085 15.8696 0.283669 -2.00089 0.895649 6.05273 8.4133 -0.0 0.0 -0.0 8.16781 14.0747 -15.7112 -10.7959 22.249 -65.288 1.20664 30.8671 -0.333136 30.8645 -0.0388281 3.89523 0.0890089 -11.0448 -5.13356 0.0 0.0 0.0 15.796 9.612 -5.71701 -48.4179 -1.08719 7.13371 13.1721 26.6366 -1.95685 -2.33185 0.0 0.0 -0.0 0.0 -0.0 10.1005 26.5747 -2.87008 -17.0695 -0.319015 -2.59039 29.8605 -8.85983 3.87743 -5.22562 0.0 0.0 0.0 0.0 0.0 
